<?xml version="1.0" encoding="UTF-8"?>
<!DOCTYPE svg PUBLIC "-//W3C//DTD SVG 1.1//EN" "http://www.w3.org/Graphics/SVG/1.1/DTD/svg11.dtd">
<svg xmlns="http://www.w3.org/2000/svg" version="1.1" width="300px" height="300px" style="shape-rendering:geometricPrecision; text-rendering:geometricPrecision; image-rendering:optimizeQuality; fill-rule:evenodd; clip-rule:evenodd" xmlns:xlink="http://www.w3.org/1999/xlink">
<g><path style="opacity:0.486" fill="#aa8584" d="M 148.5,11.5 C 147.167,11.5 145.833,11.5 144.5,11.5C 145.833,8.83333 147.167,8.83333 148.5,11.5 Z"/></g>
<g><path style="opacity:1" fill="#b11409" d="M 144.5,11.5 C 145.833,11.5 147.167,11.5 148.5,11.5C 150.509,13.0652 152.843,14.0652 155.5,14.5C 156.492,14.3284 157.158,14.6618 157.5,15.5C 158.514,16.6737 159.847,17.3404 161.5,17.5C 164.089,17.461 166.089,18.461 167.5,20.5C 169.891,22.3622 172.558,23.6955 175.5,24.5C 177.153,24.6596 178.486,25.3263 179.5,26.5C 181.34,28.6689 183.674,30.0023 186.5,30.5C 187.287,32.1042 188.62,32.7709 190.5,32.5C 191.035,34.4456 192.368,35.4456 194.5,35.5C 195.492,35.3284 196.158,35.6618 196.5,36.5C 198.267,38.8901 200.6,40.5568 203.5,41.5C 207.801,43.317 211.801,45.6503 215.5,48.5C 215.5,49.8333 216.167,50.5 217.5,50.5C 218.035,52.4456 219.368,53.4456 221.5,53.5C 222.27,55.9354 223.937,57.2687 226.5,57.5C 226.973,58.9063 227.973,59.573 229.5,59.5C 230.167,59.5 230.5,59.8333 230.5,60.5C 230.973,61.9063 231.973,62.573 233.5,62.5C 233.81,64.1436 234.81,65.1436 236.5,65.5C 237.492,65.3284 238.158,65.6618 238.5,66.5C 238.5,68.5 239.5,69.5 241.5,69.5C 242.71,69.9321 243.71,70.5987 244.5,71.5C 244.488,74.142 245.821,75.4754 248.5,75.5C 250.549,76.8818 252.215,78.5484 253.5,80.5C 259.167,86.8333 265.167,92.8333 271.5,98.5C 273.19,98.8564 274.19,99.8564 274.5,101.5C 274.488,104.142 275.821,105.475 278.5,105.5C 279.08,107.749 280.413,109.415 282.5,110.5C 280.929,133.807 276.929,156.807 270.5,179.5C 268.288,182.321 267.288,185.655 267.5,189.5C 265.72,190.99 265.054,192.99 265.5,195.5C 265.5,195.833 265.5,196.167 265.5,196.5C 263.896,197.287 263.229,198.62 263.5,200.5C 263.768,202.099 263.434,203.432 262.5,204.5C 261.069,205.78 260.402,207.447 260.5,209.5C 258.345,211.617 257.345,214.284 257.5,217.5C 257.737,218.791 257.404,219.791 256.5,220.5C 255.326,221.514 254.66,222.847 254.5,224.5C 252.552,226.32 251.552,228.654 251.5,231.5C 250.958,234.912 249.625,237.912 247.5,240.5C 246.326,241.514 245.66,242.847 245.5,244.5C 245.5,244.833 245.5,245.167 245.5,245.5C 243.127,247.579 241.794,250.246 241.5,253.5C 240.094,253.973 239.427,254.973 239.5,256.5C 236.742,259.678 234.742,263.345 233.5,267.5C 233.672,268.492 233.338,269.158 232.5,269.5C 230.952,269.821 230.285,270.821 230.5,272.5C 182.927,284.179 134.927,285.846 86.5,277.5C 83.8291,275.882 80.8291,275.215 77.5,275.5C 75.2646,275.795 73.2646,275.461 71.5,274.5C 68.8291,272.882 65.8291,272.215 62.5,272.5C 61.0937,272.027 60.427,271.027 60.5,269.5C 59.9213,266.669 58.588,264.336 56.5,262.5C 55.2583,258.345 53.2583,254.678 50.5,251.5C 50.5,251.167 50.5,250.833 50.5,250.5C 50.2503,248.326 49.2503,246.659 47.5,245.5C 47.5,245.167 47.5,244.833 47.5,244.5C 47.2503,242.326 46.2503,240.659 44.5,239.5C 44.5,239.167 44.5,238.833 44.5,238.5C 44.4077,236.152 43.4077,234.486 41.5,233.5C 41.5,233.167 41.5,232.833 41.5,232.5C 41.2671,229.458 40.2671,226.792 38.5,224.5C 38.2451,222.033 37.2451,220.033 35.5,218.5C 35.5,218.167 35.5,217.833 35.5,217.5C 35.3794,214.895 34.3794,212.895 32.5,211.5C 32.5,210.833 32.5,210.167 32.5,209.5C 32.0198,206.557 31.0198,203.89 29.5,201.5C 29.7709,199.62 29.1042,198.287 27.5,197.5C 25.3444,190.544 23.3444,183.544 21.5,176.5C 22.7152,175.221 22.3818,174.221 20.5,173.5C 18.9878,168.272 17.9878,162.938 17.5,157.5C 17.5797,154.219 16.913,151.219 15.5,148.5C 14.5318,146.393 14.1984,144.059 14.5,141.5C 14.3054,135.233 13.3054,129.233 11.5,123.5C 11.5,122.833 11.5,122.167 11.5,121.5C 11.2444,117.35 11.2444,113.35 11.5,109.5C 14.6468,107.454 16.9802,104.788 18.5,101.5C 19.5,101.167 20.1667,100.5 20.5,99.5C 21.9661,97.2837 23.6327,95.2837 25.5,93.5C 28.8333,92.1667 31.1667,89.8333 32.5,86.5C 36.1002,84.5698 39.1002,81.9031 41.5,78.5C 41.5,77.8333 41.8333,77.5 42.5,77.5C 45.1667,76.8333 46.8333,75.1667 47.5,72.5C 49.1423,71.197 50.8089,69.8637 52.5,68.5C 54.4044,68.2624 55.7377,67.2624 56.5,65.5C 59.1092,64.5569 61.1092,62.8903 62.5,60.5C 64.7488,59.9202 66.4154,58.5869 67.5,56.5C 68.2623,54.7376 69.5956,53.7376 71.5,53.5C 73.0269,53.573 74.0269,52.9063 74.5,51.5C 75.8021,49.1782 77.8021,47.8449 80.5,47.5C 83.4001,46.5568 85.7334,44.8901 87.5,42.5C 87.8417,41.6618 88.5084,41.3284 89.5,41.5C 93.1153,40.1826 96.1153,38.1826 98.5,35.5C 98.9731,34.0937 99.9731,33.427 101.5,33.5C 103.027,33.573 104.027,32.9063 104.5,31.5C 106.38,31.7709 107.713,31.1042 108.5,29.5C 110.848,29.4077 112.514,28.4077 113.5,26.5C 117.431,25.8678 120.765,24.2011 123.5,21.5C 123.842,20.6618 124.508,20.3284 125.5,20.5C 127.848,20.4077 129.514,19.4077 130.5,17.5C 130.833,17.5 131.167,17.5 131.5,17.5C 135.372,16.8975 138.705,15.2309 141.5,12.5C 142.209,11.596 143.209,11.2627 144.5,11.5 Z M 152.5,26.5 C 152.973,27.9063 153.973,28.573 155.5,28.5C 156.391,29.1098 157.391,29.4431 158.5,29.5C 160.033,31.2451 162.033,32.2451 164.5,32.5C 165.287,34.1042 166.62,34.7709 168.5,34.5C 168.842,35.3382 169.508,35.6716 170.5,35.5C 171.911,37.539 173.911,38.539 176.5,38.5C 176.973,39.9063 177.973,40.573 179.5,40.5C 179.842,41.3382 180.508,41.6716 181.5,41.5C 181.973,42.9063 182.973,43.573 184.5,43.5C 184.842,44.3382 185.508,44.6716 186.5,44.5C 186.973,45.9063 187.973,46.573 189.5,46.5C 189.842,47.3382 190.508,47.6716 191.5,47.5C 191.973,48.9063 192.973,49.573 194.5,49.5C 196.223,51.2181 198.223,52.5514 200.5,53.5C 200.973,54.9063 201.973,55.573 203.5,55.5C 203.973,56.9063 204.973,57.573 206.5,57.5C 206.973,58.9063 207.973,59.573 209.5,59.5C 210.262,61.2624 211.596,62.2624 213.5,62.5C 214.262,64.2624 215.596,65.2624 217.5,65.5C 219.091,67.6326 221.091,69.2993 223.5,70.5C 224.262,72.2624 225.596,73.2624 227.5,73.5C 227.833,74.5 228.5,75.1667 229.5,75.5C 229.973,76.9063 230.973,77.573 232.5,77.5C 234.239,80.2427 236.573,82.2427 239.5,83.5C 239.5,85.5 240.5,86.5 242.5,86.5C 242.833,87.5 243.5,88.1667 244.5,88.5C 247.5,92.1667 250.833,95.5 254.5,98.5C 255.167,99.8333 256.167,100.833 257.5,101.5C 258.167,102.833 259.167,103.833 260.5,104.5C 260.856,106.19 261.856,107.19 263.5,107.5C 263.427,109.027 264.094,110.027 265.5,110.5C 267.89,112.402 269.223,114.902 269.5,118C 268.637,122.48 267.97,126.98 267.5,131.5C 266.886,135.135 266.552,138.802 266.5,142.5C 264.763,147.23 263.763,152.23 263.5,157.5C 261.96,159.838 261.294,162.505 261.5,165.5C 260.549,166.919 260.216,168.585 260.5,170.5C 258.926,172.102 258.259,174.102 258.5,176.5C 258.5,176.833 258.5,177.167 258.5,177.5C 256.653,181.224 255.32,185.224 254.5,189.5C 254.5,190.167 254.5,190.833 254.5,191.5C 252.416,194.801 251.082,198.468 250.5,202.5C 247.783,208.312 245.45,214.312 243.5,220.5C 241.416,223.053 240.083,226.053 239.5,229.5C 237.896,230.287 237.229,231.62 237.5,233.5C 234.798,237.912 232.464,242.579 230.5,247.5C 229.094,247.973 228.427,248.973 228.5,250.5C 227.89,251.391 227.557,252.391 227.5,253.5C 226.094,253.973 225.427,254.973 225.5,256.5C 224.326,257.514 223.66,258.847 223.5,260.5C 220.646,261.205 217.979,262.205 215.5,263.5C 215.167,263.5 214.833,263.5 214.5,263.5C 209.529,263.656 204.862,264.656 200.5,266.5C 199.833,266.5 199.167,266.5 198.5,266.5C 192.966,266.668 187.633,267.335 182.5,268.5C 152.441,270.99 122.441,270.324 92.5,266.5C 88.138,264.656 83.4714,263.656 78.5,263.5C 78.1667,263.5 77.8333,263.5 77.5,263.5C 75.4375,262.224 73.1042,261.39 70.5,261C 69.9341,260.005 69.2674,259.172 68.5,258.5C 68.2503,256.326 67.2503,254.659 65.5,253.5C 65.6716,252.508 65.3382,251.842 64.5,251.5C 63.4918,249.456 62.4918,247.456 61.5,245.5C 61.573,243.973 60.9063,242.973 59.5,242.5C 59.5,242.167 59.5,241.833 59.5,241.5C 58.5282,238.563 57.1948,235.897 55.5,233.5C 54.8333,231.833 54.1667,230.167 53.5,228.5C 53.047,226.435 52.047,224.768 50.5,223.5C 49.0689,218.989 47.4022,214.655 45.5,210.5C 45.2041,208.597 44.5375,206.93 43.5,205.5C 43.8799,203.302 43.2132,201.635 41.5,200.5C 41.4725,197.084 40.4725,194.084 38.5,191.5C 38.7678,189.901 38.4345,188.568 37.5,187.5C 37.7406,185.102 37.0739,183.102 35.5,181.5C 35.7678,179.901 35.4345,178.568 34.5,177.5C 34.7406,175.102 34.0739,173.102 32.5,171.5C 32.4249,168.794 32.0916,166.127 31.5,163.5C 31.2041,161.597 30.5375,159.93 29.5,158.5C 28.0066,149.526 26.6733,140.526 25.5,131.5C 25.2474,127.96 24.5808,124.627 23.5,121.5C 23.2786,118.721 23.612,116.054 24.5,113.5C 25.9063,113.027 26.573,112.027 26.5,110.5C 28.9228,109.05 30.9228,107.05 32.5,104.5C 33.8333,103.833 34.8333,102.833 35.5,101.5C 36.5,101.167 37.1667,100.5 37.5,99.5C 38.8333,98.8333 39.8333,97.8333 40.5,96.5C 42.1667,95.5 43.5,94.1667 44.5,92.5C 47.8815,89.7852 50.8815,86.7852 53.5,83.5C 55.5,83.5 56.5,82.5 56.5,80.5C 58.7541,79.5849 60.7541,78.2516 62.5,76.5C 63.8333,75.8333 64.8333,74.8333 65.5,73.5C 66.8333,73.5 67.5,72.8333 67.5,71.5C 67.8333,71.5 68.1667,71.5 68.5,71.5C 69.8333,70.8333 70.8333,69.8333 71.5,68.5C 73.0269,68.573 74.0269,67.9063 74.5,66.5C 76.754,65.8763 78.4206,64.543 79.5,62.5C 82.1354,61.1891 84.4687,59.5224 86.5,57.5C 88.0269,57.573 89.0269,56.9063 89.5,55.5C 92.3702,54.5667 94.7036,52.9 96.5,50.5C 97.609,50.4431 98.609,50.1098 99.5,49.5C 101.537,48.1535 103.537,46.8202 105.5,45.5C 106.167,45.1667 106.833,44.8333 107.5,44.5C 108.71,44.0679 109.71,43.4013 110.5,42.5C 111.167,42.5 111.5,42.1667 111.5,41.5C 113.153,41.3404 114.486,40.6737 115.5,39.5C 116.167,39.5 116.5,39.1667 116.5,38.5C 119.089,38.539 121.089,37.539 122.5,35.5C 126.127,34.2961 129.46,32.6294 132.5,30.5C 135.018,29.7362 137.351,28.7362 139.5,27.5C 141.886,26.7019 144.22,25.7019 146.5,24.5C 148.323,25.7472 150.323,26.4139 152.5,26.5 Z M 140.5,91.5 C 140.5,93.8333 140.5,96.1667 140.5,98.5C 138.906,98.9195 137.406,99.5862 136,100.5C 134.697,100.022 133.531,99.355 132.5,98.5C 132.368,95.4299 132.701,92.4299 133.5,89.5C 134.583,89.4606 135.583,89.1272 136.5,88.5C 137.642,89.8262 138.976,90.8262 140.5,91.5 Z M 165.5,88.5 C 168.861,89.2032 169.194,90.5365 166.5,92.5C 165.571,91.3112 165.238,89.9778 165.5,88.5 Z M 120.5,91.5 C 120.5,91.8333 120.5,92.1667 120.5,92.5C 119.5,92.5 118.5,92.5 117.5,92.5C 117.5,91.5 117.5,90.5 117.5,89.5C 119.179,89.2852 120.179,89.9519 120.5,91.5 Z M 181.5,92.5 C 182.167,92.5 182.833,92.5 183.5,92.5C 183.5,93.8333 183.5,95.1667 183.5,96.5C 182.833,96.5 182.167,96.5 181.5,96.5C 181.5,95.1667 181.5,93.8333 181.5,92.5 Z M 169.5,97.5 C 169.443,98.609 169.11,99.609 168.5,100.5C 167.5,100.5 166.5,100.5 165.5,100.5C 165.5,99.1667 165.5,97.8333 165.5,96.5C 166.959,96.4326 168.292,96.7659 169.5,97.5 Z"/></g>
<g><path style="opacity:0.243" fill="#a17472" d="M 148.5,11.5 C 151.346,11.5516 153.68,12.5516 155.5,14.5C 152.843,14.0652 150.509,13.0652 148.5,11.5 Z"/></g>
<g><path style="opacity:0.165" fill="#a46664" d="M 157.5,15.5 C 159.38,15.2291 160.713,15.8958 161.5,17.5C 159.847,17.3404 158.514,16.6737 157.5,15.5 Z"/></g>
<g><path style="opacity:1" fill="#aa473c" d="M 141.5,12.5 C 138.705,15.2309 135.372,16.8975 131.5,17.5C 134.416,15.0784 137.749,13.4117 141.5,12.5 Z"/></g>
<g><path style="opacity:0.639" fill="#914740" d="M 130.5,17.5 C 129.514,19.4077 127.848,20.4077 125.5,20.5C 126.659,18.7497 128.326,17.7497 130.5,17.5 Z"/></g>
<g><path style="opacity:0.439" fill="#914842" d="M 167.5,20.5 C 170.754,20.7936 173.421,22.127 175.5,24.5C 172.558,23.6955 169.891,22.3622 167.5,20.5 Z"/></g>
<g><path style="opacity:0.859" fill="#924139" d="M 123.5,21.5 C 120.765,24.2011 117.431,25.8678 113.5,26.5C 116.526,24.3201 119.86,22.6534 123.5,21.5 Z"/></g>
<g><path style="opacity:0.514" fill="#7d6362" d="M 152.5,26.5 C 154.027,26.427 155.027,27.0937 155.5,28.5C 153.973,28.573 152.973,27.9063 152.5,26.5 Z"/></g>
<g><path style="opacity:0.463" fill="#a46b66" d="M 139.5,27.5 C 137.351,28.7362 135.018,29.7362 132.5,30.5C 134.176,28.1663 136.509,27.1663 139.5,27.5 Z"/></g>
<g><path style="opacity:0.188" fill="#a16d69" d="M 179.5,26.5 C 182.331,27.0787 184.664,28.412 186.5,30.5C 183.674,30.0023 181.34,28.6689 179.5,26.5 Z"/></g>
<g><path style="opacity:0.529" fill="#8b534e" d="M 113.5,26.5 C 112.514,28.4077 110.848,29.4077 108.5,29.5C 109.659,27.7497 111.326,26.7497 113.5,26.5 Z"/></g>
<g><path style="opacity:0.969" fill="#ab564d" d="M 158.5,29.5 C 161.313,29.0246 163.313,30.0246 164.5,32.5C 162.033,32.2451 160.033,31.2451 158.5,29.5 Z"/></g>
<g><path style="opacity:0.337" fill="#a26764" d="M 108.5,29.5 C 107.713,31.1042 106.38,31.7709 104.5,31.5C 105.514,30.3263 106.847,29.6596 108.5,29.5 Z"/></g>
<g><path style="opacity:0.047" fill="#a99392" d="M 186.5,30.5 C 188.153,30.6596 189.486,31.3263 190.5,32.5C 188.62,32.7709 187.287,32.1042 186.5,30.5 Z"/></g>
<g><path style="opacity:0.522" fill="#b4807e" d="M 104.5,31.5 C 104.027,32.9063 103.027,33.573 101.5,33.5C 101.973,32.0937 102.973,31.427 104.5,31.5 Z"/></g>
<g><path style="opacity:0.094" fill="#958887" d="M 164.5,32.5 C 166.153,32.6596 167.486,33.3263 168.5,34.5C 166.62,34.7709 165.287,34.1042 164.5,32.5 Z"/></g>
<g><path style="opacity:0.733" fill="#936460" d="M 190.5,32.5 C 192.23,33.0256 193.564,34.0256 194.5,35.5C 192.368,35.4456 191.035,34.4456 190.5,32.5 Z"/></g>
<g><path style="opacity:0.102" fill="#af8382" d="M 122.5,35.5 C 121.089,37.539 119.089,38.539 116.5,38.5C 118.181,36.9925 120.181,35.9925 122.5,35.5 Z"/></g>
<g><path style="opacity:0.141" fill="#9f7b7b" d="M 170.5,35.5 C 172.819,35.9925 174.819,36.9925 176.5,38.5C 173.911,38.539 171.911,37.539 170.5,35.5 Z"/></g>
<g><path style="opacity:0.031" fill="#977573" d="M 196.5,36.5 C 199.439,37.456 201.772,39.1226 203.5,41.5C 200.6,40.5568 198.267,38.8901 196.5,36.5 Z"/></g>
<g><path style="opacity:0.576" fill="#a05751" d="M 98.5,35.5 C 96.1153,38.1826 93.1153,40.1826 89.5,41.5C 89.3691,40.6236 89.7025,39.9569 90.5,39.5C 92.9553,37.7033 95.622,36.37 98.5,35.5 Z"/></g>
<g><path style="opacity:0.314" fill="#996866" d="M 176.5,38.5 C 178.027,38.427 179.027,39.0937 179.5,40.5C 177.973,40.573 176.973,39.9063 176.5,38.5 Z"/></g>
<g><path style="opacity:0.086" fill="#ae8180" d="M 115.5,39.5 C 114.486,40.6737 113.153,41.3404 111.5,41.5C 112.287,39.8958 113.62,39.2291 115.5,39.5 Z"/></g>
<g><path style="opacity:0.537" fill="#a37876" d="M 181.5,41.5 C 183.027,41.427 184.027,42.0937 184.5,43.5C 182.973,43.573 181.973,42.9063 181.5,41.5 Z"/></g>
<g><path style="opacity:0.227" fill="#a98684" d="M 110.5,42.5 C 109.71,43.4013 108.71,44.0679 107.5,44.5C 107.821,42.9519 108.821,42.2852 110.5,42.5 Z"/></g>
<g><path style="opacity:0.18" fill="#99625e" d="M 87.5,42.5 C 85.7334,44.8901 83.4001,46.5568 80.5,47.5C 82.228,45.1226 84.5614,43.456 87.5,42.5 Z"/></g>
<g><path style="opacity:0.235" fill="#a37775" d="M 186.5,44.5 C 188.027,44.427 189.027,45.0937 189.5,46.5C 187.973,46.573 186.973,45.9063 186.5,44.5 Z"/></g>
<g><path style="opacity:0.592" fill="#674d4d" d="M 191.5,47.5 C 193.027,47.427 194.027,48.0937 194.5,49.5C 192.973,49.573 191.973,48.9063 191.5,47.5 Z"/></g>
<g><path style="opacity:0.024" fill="#8e6b69" d="M 105.5,45.5 C 103.537,46.8202 101.537,48.1535 99.5,49.5C 100.392,46.7079 102.392,45.3746 105.5,45.5 Z"/></g>
<g><path style="opacity:0.431" fill="#967c7b" d="M 215.5,48.5 C 216.5,48.8333 217.167,49.5 217.5,50.5C 216.167,50.5 215.5,49.8333 215.5,48.5 Z"/></g>
<g><path style="opacity:0.569" fill="#7e5452" d="M 74.5,51.5 C 74.0269,52.9063 73.0269,53.573 71.5,53.5C 71.9731,52.0937 72.9731,51.427 74.5,51.5 Z"/></g>
<g><path style="opacity:0.486" fill="#a3645f" d="M 217.5,50.5 C 219.23,51.0256 220.564,52.0256 221.5,53.5C 219.368,53.4456 218.035,52.4456 217.5,50.5 Z"/></g>
<g><path style="opacity:0.024" fill="#9f7675" d="M 96.5,50.5 C 94.7036,52.9 92.3702,54.5667 89.5,55.5C 91.2964,53.1 93.6298,51.4333 96.5,50.5 Z"/></g>
<g><path style="opacity:0.235" fill="#aa6863" d="M 200.5,53.5 C 202.027,53.427 203.027,54.0937 203.5,55.5C 201.973,55.573 200.973,54.9063 200.5,53.5 Z"/></g>
<g><path style="opacity:0.945" fill="#a96259" d="M 221.5,53.5 C 223.749,54.0798 225.415,55.4131 226.5,57.5C 223.937,57.2687 222.27,55.9354 221.5,53.5 Z"/></g>
<g><path style="opacity:0.008" fill="#c6a9a7" d="M 89.5,55.5 C 89.0269,56.9063 88.0269,57.573 86.5,57.5C 86.9731,56.0937 87.9731,55.427 89.5,55.5 Z"/></g>
<g><path style="opacity:0.275" fill="#967471" d="M 203.5,55.5 C 205.027,55.427 206.027,56.0937 206.5,57.5C 204.973,57.573 203.973,56.9063 203.5,55.5 Z"/></g>
<g><path style="opacity:0.408" fill="#aa706e" d="M 67.5,56.5 C 66.4154,58.5869 64.7488,59.9202 62.5,60.5C 63.5846,58.4131 65.2512,57.0798 67.5,56.5 Z"/></g>
<g><path style="opacity:0.031" fill="#a08e8d" d="M 226.5,57.5 C 228.027,57.427 229.027,58.0937 229.5,59.5C 227.973,59.573 226.973,58.9063 226.5,57.5 Z"/></g>
<g><path style="opacity:0.361" fill="#a66766" d="M 206.5,57.5 C 208.027,57.427 209.027,58.0937 209.5,59.5C 207.973,59.573 206.973,58.9063 206.5,57.5 Z"/></g>
<g><path style="opacity:0.506" fill="#a36865" d="M 209.5,59.5 C 211.404,59.7376 212.738,60.7376 213.5,62.5C 211.596,62.2624 210.262,61.2624 209.5,59.5 Z"/></g>
<g><path style="opacity:0.016" fill="#9c9594" d="M 230.5,60.5 C 232.027,60.427 233.027,61.0937 233.5,62.5C 231.973,62.573 230.973,61.9063 230.5,60.5 Z"/></g>
<g><path style="opacity:0.408" fill="#ac7875" d="M 62.5,60.5 C 61.1092,62.8903 59.1092,64.5569 56.5,65.5C 57.865,63.1402 59.865,61.4735 62.5,60.5 Z"/></g>
<g><path style="opacity:0.047" fill="#a38785" d="M 79.5,62.5 C 78.4206,64.543 76.754,65.8763 74.5,66.5C 75.5387,64.4689 77.2054,63.1355 79.5,62.5 Z"/></g>
<g><path style="opacity:0.22" fill="#b78e8b" d="M 233.5,62.5 C 235.19,62.8564 236.19,63.8564 236.5,65.5C 234.81,65.1436 233.81,64.1436 233.5,62.5 Z"/></g>
<g><path style="opacity:0.522" fill="#8e5b59" d="M 56.5,65.5 C 55.7377,67.2624 54.4044,68.2624 52.5,68.5C 53.2623,66.7376 54.5956,65.7376 56.5,65.5 Z"/></g>
<g><path style="opacity:0.965" fill="#9a453a" d="M 217.5,65.5 C 220.87,65.6288 222.87,67.2954 223.5,70.5C 221.091,69.2993 219.091,67.6326 217.5,65.5 Z"/></g>
<g><path style="opacity:0.576" fill="#a36c69" d="M 238.5,66.5 C 239.833,67.1667 240.833,68.1667 241.5,69.5C 239.5,69.5 238.5,68.5 238.5,66.5 Z"/></g>
<g><path style="opacity:0.094" fill="#a37c7a" d="M 71.5,68.5 C 70.8333,69.8333 69.8333,70.8333 68.5,71.5C 68.5,69.5 69.5,68.5 71.5,68.5 Z"/></g>
<g><path style="opacity:0.478" fill="#b48785" d="M 223.5,70.5 C 225.404,70.7376 226.738,71.7376 227.5,73.5C 225.596,73.2624 224.262,72.2624 223.5,70.5 Z"/></g>
<g><path style="opacity:0.008" fill="#a69595" d="M 67.5,71.5 C 67.5,72.8333 66.8333,73.5 65.5,73.5C 65.8333,72.5 66.5,71.8333 67.5,71.5 Z"/></g>
<g><path style="opacity:0.455" fill="#ab5349" d="M 244.5,71.5 C 246.167,72.5 247.5,73.8333 248.5,75.5C 245.821,75.4754 244.488,74.142 244.5,71.5 Z"/></g>
<g><path style="opacity:0.039" fill="#988b8a" d="M 65.5,73.5 C 64.8333,74.8333 63.8333,75.8333 62.5,76.5C 62.5,74.5 63.5,73.5 65.5,73.5 Z"/></g>
<g><path style="opacity:0.804" fill="#713d38" d="M 47.5,72.5 C 46.8333,75.1667 45.1667,76.8333 42.5,77.5C 43.8333,75.5 45.5,73.8333 47.5,72.5 Z"/></g>
<g><path style="opacity:0.439" fill="#9f7775" d="M 229.5,75.5 C 231.027,75.427 232.027,76.0937 232.5,77.5C 230.973,77.573 229.973,76.9063 229.5,75.5 Z"/></g>
<g><path style="opacity:0.827" fill="#9f645e" d="M 232.5,77.5 C 235.427,78.7573 237.761,80.7573 239.5,83.5C 236.573,82.2427 234.239,80.2427 232.5,77.5 Z"/></g>
<g><path style="opacity:0.447" fill="#997573" d="M 41.5,78.5 C 39.1002,81.9031 36.1002,84.5698 32.5,86.5C 34.8998,83.0969 37.8998,80.4302 41.5,78.5 Z"/></g>
<g><path style="opacity:0.039" fill="#9f7f7e" d="M 253.5,80.5 C 260.5,85.5 266.5,91.5 271.5,98.5C 265.167,92.8333 259.167,86.8333 253.5,80.5 Z"/></g>
<g><path style="opacity:0.031" fill="#837978" d="M 56.5,80.5 C 56.5,82.5 55.5,83.5 53.5,83.5C 54.1667,82.1667 55.1667,81.1667 56.5,80.5 Z"/></g>
<g><path style="opacity:0.157" fill="#ae9298" d="M 134.5,84.5 C 140.377,82.7931 143.711,85.1264 144.5,91.5C 144.167,91.5 143.833,91.5 143.5,91.5C 142.225,87.0214 139.225,84.688 134.5,84.5 Z"/></g>
<g><path style="opacity:0.188" fill="#b39193" d="M 90.5,84.5 C 92.8769,83.3279 95.2102,83.6612 97.5,85.5C 97.5,86.5 97.5,87.5 97.5,88.5C 97.2172,89.2891 96.7172,89.9558 96,90.5C 94.6976,89.9152 93.531,89.2485 92.5,88.5C 93.9778,88.762 95.3112,88.4287 96.5,87.5C 95.0606,85.4469 93.0606,84.4469 90.5,84.5 Z"/></g>
<g><path style="opacity:0.094" fill="#8a757f" d="M 120.5,84.5 C 123.367,84.3692 125.033,85.7026 125.5,88.5C 123.809,87.1363 122.142,85.803 120.5,84.5 Z"/></g>
<g><path style="opacity:0.447" fill="#b84b4a" d="M 191.5,85.5 C 195.634,84.5151 199.968,84.1818 204.5,84.5C 204.5,85.8333 204.5,87.1667 204.5,88.5C 203.167,88.5 201.833,88.5 200.5,88.5C 200.167,88.5 199.833,88.5 199.5,88.5C 200.718,87.8386 202.051,87.1719 203.5,86.5C 199.555,85.5091 195.555,85.1758 191.5,85.5 Z"/></g>
<g><path style="opacity:0.024" fill="#a49594" d="M 239.5,83.5 C 240.833,84.1667 241.833,85.1667 242.5,86.5C 240.5,86.5 239.5,85.5 239.5,83.5 Z"/></g>
<g><path style="opacity:1" fill="#ac0c06" d="M 110.5,85.5 C 111.404,86.209 111.737,87.209 111.5,88.5C 109.833,88.5 108.167,88.5 106.5,88.5C 105.513,93.3054 105.179,98.3054 105.5,103.5C 103.554,98.6042 102.887,93.2709 103.5,87.5C 101.712,87.7852 100.045,87.4519 98.5,86.5C 102.445,85.5091 106.445,85.1758 110.5,85.5 Z"/></g>
<g><path style="opacity:1" fill="#ab150f" d="M 120.5,84.5 C 122.142,85.803 123.809,87.1363 125.5,88.5C 125.5,89.8333 125.5,91.1667 125.5,92.5C 124.007,93.3121 123.34,94.6455 123.5,96.5C 123.34,98.3545 124.007,99.6879 125.5,100.5C 125.5,101.5 125.5,102.5 125.5,103.5C 123.678,103.169 122.011,102.502 120.5,101.5C 120.167,100.167 119.833,98.8333 119.5,97.5C 118.791,96.596 117.791,96.2627 116.5,96.5C 116.5,98.8333 116.5,101.167 116.5,103.5C 115.5,103.5 114.5,103.5 113.5,103.5C 113.5,97.5 113.5,91.5 113.5,85.5C 115.607,84.5318 117.941,84.1984 120.5,84.5 Z M 120.5,91.5 C 120.5,91.8333 120.5,92.1667 120.5,92.5C 119.5,92.5 118.5,92.5 117.5,92.5C 117.5,91.5 117.5,90.5 117.5,89.5C 119.179,89.2852 120.179,89.9519 120.5,91.5 Z"/></g>
<g><path style="opacity:0.529" fill="#b1756d" d="M 133.5,84.5 C 133.027,85.9063 132.027,86.573 130.5,86.5C 130.973,85.0937 131.973,84.427 133.5,84.5 Z"/></g>
<g><path style="opacity:1" fill="#a7140b" d="M 133.5,84.5 C 133.833,84.5 134.167,84.5 134.5,84.5C 139.225,84.688 142.225,87.0214 143.5,91.5C 143.5,93.5 143.5,95.5 143.5,97.5C 143.167,98.8333 142.833,100.167 142.5,101.5C 141.094,101.973 140.427,102.973 140.5,104.5C 140.167,104.5 139.833,104.5 139.5,104.5C 135.83,104.558 132.164,103.558 128.5,101.5C 128.5,101.167 128.5,100.833 128.5,100.5C 128.5,96.8333 128.5,93.1667 128.5,89.5C 128.427,87.9731 129.094,86.9731 130.5,86.5C 132.027,86.573 133.027,85.9063 133.5,84.5 Z M 140.5,91.5 C 140.5,93.8333 140.5,96.1667 140.5,98.5C 138.906,98.9195 137.406,99.5862 136,100.5C 134.697,100.022 133.531,99.355 132.5,98.5C 132.368,95.4299 132.701,92.4299 133.5,89.5C 134.583,89.4606 135.583,89.1272 136.5,88.5C 137.642,89.8262 138.976,90.8262 140.5,91.5 Z"/></g>
<g><path style="opacity:1" fill="#a5180c" d="M 191.5,85.5 C 195.555,85.1758 199.555,85.5091 203.5,86.5C 202.051,87.1719 200.718,87.8386 199.5,88.5C 199.5,93.5 199.5,98.5 199.5,103.5C 198.5,103.5 197.5,103.5 196.5,103.5C 196.5,98.5 196.5,93.5 196.5,88.5C 194.833,88.5 193.167,88.5 191.5,88.5C 190.375,87.3478 190.375,86.3478 191.5,85.5 Z"/></g>
<g><path style="opacity:0.032" fill="#dfe1d8" d="M 110.5,85.5 C 110.5,85.1667 110.5,84.8333 110.5,84.5C 111.609,84.5569 112.609,84.8902 113.5,85.5C 113.5,91.5 113.5,97.5 113.5,103.5C 113.5,103.833 113.5,104.167 113.5,104.5C 112.513,99.6946 112.179,94.6946 112.5,89.5C 110.5,89.5 108.5,89.5 106.5,89.5C 106.5,89.1667 106.5,88.8333 106.5,88.5C 108.167,88.5 109.833,88.5 111.5,88.5C 111.737,87.209 111.404,86.209 110.5,85.5 Z"/></g>
<g><path style="opacity:0.22" fill="#ac8676" d="M 150.5,86.5 C 148.544,84.8249 147.211,85.1582 146.5,87.5C 144.952,87.1788 144.285,86.1788 144.5,84.5C 147.082,84.0254 149.082,84.6921 150.5,86.5 Z"/></g>
<g><path style="opacity:0.267" fill="#ad9483" d="M 155.5,85.5 C 157.494,84.8504 159.494,84.5171 161.5,84.5C 161.5,91.1667 161.5,97.8333 161.5,104.5C 160.672,98.6807 160.172,92.6807 160,86.5C 159.392,88.0664 158.558,89.3998 157.5,90.5C 157.421,89.0695 157.754,87.7362 158.5,86.5C 157.675,85.6143 156.675,85.281 155.5,85.5 Z"/></g>
<g><path style="opacity:0.98" fill="#9f251e" d="M 161.5,84.5 C 164.167,84.5 166.833,84.5 169.5,84.5C 169.5,84.8333 169.5,85.1667 169.5,85.5C 167.167,85.5 164.833,85.5 162.5,85.5C 162.5,91.5 162.5,97.5 162.5,103.5C 165.059,103.198 167.393,103.532 169.5,104.5C 166.833,104.5 164.167,104.5 161.5,104.5C 161.5,97.8333 161.5,91.1667 161.5,84.5 Z"/></g>
<g><path style="opacity:0.999" fill="#b81e11" d="M 169.5,85.5 C 172.825,87.8035 173.158,90.4702 170.5,93.5C 172.986,95.578 173.986,98.2447 173.5,101.5C 173.306,103.912 171.973,104.912 169.5,104.5C 167.393,103.532 165.059,103.198 162.5,103.5C 162.5,97.5 162.5,91.5 162.5,85.5C 164.833,85.5 167.167,85.5 169.5,85.5 Z M 165.5,88.5 C 165.238,89.9778 165.571,91.3112 166.5,92.5C 169.194,90.5365 168.861,89.2032 165.5,88.5 Z M 169.5,97.5 C 169.443,98.609 169.11,99.609 168.5,100.5C 167.5,100.5 166.5,100.5 165.5,100.5C 165.5,99.1667 165.5,97.8333 165.5,96.5C 166.959,96.4326 168.292,96.7659 169.5,97.5 Z"/></g>
<g><path style="opacity:0.494" fill="#c2796e" d="M 140.5,91.5 C 138.976,90.8262 137.642,89.8262 136.5,88.5C 135.583,89.1272 134.583,89.4606 133.5,89.5C 136.584,86.5912 138.917,87.2578 140.5,91.5 Z"/></g>
<g><path style="opacity:0.078" fill="#707a8a" d="M 185.5,85.5 C 187.28,86.9899 187.946,88.9899 187.5,91.5C 186.691,89.9724 186.024,88.3057 185.5,86.5C 185.5,86.1667 185.5,85.8333 185.5,85.5 Z"/></g>
<g><path style="opacity:0.545" fill="#c46f69" d="M 32.5,86.5 C 31.1667,89.8333 28.8333,92.1667 25.5,93.5C 27.5,90.8333 29.8333,88.5 32.5,86.5 Z"/></g>
<g><path style="opacity:0.071" fill="#9aa6ab" d="M 204.5,84.5 C 205.451,85.9187 205.784,87.5853 205.5,89.5C 203.833,89.5 202.167,89.5 200.5,89.5C 200.5,89.1667 200.5,88.8333 200.5,88.5C 201.833,88.5 203.167,88.5 204.5,88.5C 204.5,87.1667 204.5,85.8333 204.5,84.5 Z"/></g>
<g><path style="opacity:0.765" fill="#926561" d="M 244.5,88.5 C 248.833,90.8333 252.167,94.1667 254.5,98.5C 250.833,95.5 247.5,92.1667 244.5,88.5 Z"/></g>
<g><path style="opacity:0.282" fill="#6d6f82" d="M 91.5,88.5 C 90.1667,89.5 90.1667,90.5 91.5,91.5C 88.8333,90.5 88.8333,89.5 91.5,88.5 Z"/></g>
<g><path style="opacity:0.013" fill="#e7e8e5" d="M 98.5,88.5 C 99.8333,88.5 101.167,88.5 102.5,88.5C 102.5,93.8333 102.5,99.1667 102.5,104.5C 101.513,99.6946 101.179,94.6946 101.5,89.5C 100.209,89.7373 99.209,89.404 98.5,88.5 Z"/></g>
<g><path style="opacity:0.685" fill="#442e3e" d="M 106.5,88.5 C 106.5,88.8333 106.5,89.1667 106.5,89.5C 106.2,94.0986 106.533,98.5986 107.5,103C 106.956,103.717 106.289,104.217 105.5,104.5C 105.5,104.167 105.5,103.833 105.5,103.5C 105.179,98.3054 105.513,93.3054 106.5,88.5 Z"/></g>
<g><path style="opacity:0.204" fill="#b38885" d="M 120.5,91.5 C 120.179,89.9519 119.179,89.2852 117.5,89.5C 117.5,90.5 117.5,91.5 117.5,92.5C 118.5,92.5 119.5,92.5 120.5,92.5C 119.432,93.4345 118.099,93.7678 116.5,93.5C 116.5,91.8333 116.5,90.1667 116.5,88.5C 118.167,88.5 119.833,88.5 121.5,88.5C 121.737,89.791 121.404,90.791 120.5,91.5 Z"/></g>
<g><path style="opacity:1" fill="#ab1a14" d="M 150.5,86.5 C 151.434,87.5676 151.768,88.901 151.5,90.5C 151.369,91.3764 151.702,92.0431 152.5,92.5C 153.386,91.675 153.719,90.675 153.5,89.5C 153.5,89.1667 153.5,88.8333 153.5,88.5C 154.906,88.0269 155.573,87.0269 155.5,85.5C 156.675,85.281 157.675,85.6143 158.5,86.5C 157.754,87.7362 157.421,89.0695 157.5,90.5C 155.787,91.6354 155.12,93.302 155.5,95.5C 154.612,98.0545 154.279,100.721 154.5,103.5C 153.5,103.5 152.5,103.5 151.5,103.5C 152.01,100.612 151.344,98.2789 149.5,96.5C 149.5,95.8333 149.5,95.1667 149.5,94.5C 149.25,92.326 148.25,90.6594 146.5,89.5C 146.5,88.8333 146.5,88.1667 146.5,87.5C 147.211,85.1582 148.544,84.8249 150.5,86.5 Z"/></g>
<g><path style="opacity:0.616" fill="#8c715a" d="M 155.5,85.5 C 155.573,87.0269 154.906,88.0269 153.5,88.5C 153.427,86.9731 154.094,85.9731 155.5,85.5 Z"/></g>
<g><path style="opacity:0.678" fill="#b08269" d="M 180.5,86.5 C 180.634,88.2915 180.301,89.9582 179.5,91.5C 178.833,91.8333 178.167,92.1667 177.5,92.5C 178.508,90.4561 179.508,88.4561 180.5,86.5 Z"/></g>
<g><path style="opacity:0.976" fill="#95302b" d="M 185.5,85.5 C 185.5,85.8333 185.5,86.1667 185.5,86.5C 184.292,85.7659 182.959,85.4326 181.5,85.5C 181.527,87.1993 182.194,88.5326 183.5,89.5C 181.952,89.8212 181.285,90.8212 181.5,92.5C 181.5,93.8333 181.5,95.1667 181.5,96.5C 180.705,95.4723 180.038,93.8056 179.5,91.5C 180.301,89.9582 180.634,88.2915 180.5,86.5C 180.791,85.3509 181.624,84.6842 183,84.5C 184.07,84.528 184.903,84.8614 185.5,85.5 Z"/></g>
<g><path style="opacity:0.961" fill="#ac6e5b" d="M 89.5,84.5 C 87.7006,87.5046 87.0339,90.838 87.5,94.5C 85.0617,91.7756 84.895,88.7756 87,85.5C 87.6708,84.7476 88.5041,84.4142 89.5,84.5 Z"/></g>
<g><path style="opacity:1" fill="#a9291b" d="M 89.5,84.5 C 89.8333,84.5 90.1667,84.5 90.5,84.5C 93.0606,84.4469 95.0606,85.4469 96.5,87.5C 95.3112,88.4287 93.9778,88.762 92.5,88.5C 92.1667,88.5 91.8333,88.5 91.5,88.5C 88.8333,89.5 88.8333,90.5 91.5,91.5C 93.9965,93.4132 95.9965,95.7465 97.5,98.5C 97.8654,102.814 95.5321,105.147 90.5,105.5C 88.8295,105.332 87.4961,104.665 86.5,103.5C 86.3505,102.448 86.5172,101.448 87,100.5C 88.9435,101.807 90.7768,101.807 92.5,100.5C 91.4608,97.8652 89.7941,95.8652 87.5,94.5C 87.0339,90.838 87.7006,87.5046 89.5,84.5 Z"/></g>
<g><path style="opacity:0.086" fill="#9b9ba2" d="M 183.5,89.5 C 183.5,90.5 183.5,91.5 183.5,92.5C 182.833,92.5 182.167,92.5 181.5,92.5C 181.285,90.8212 181.952,89.8212 183.5,89.5 Z"/></g>
<g><path style="opacity:0.29" fill="#785546" d="M 146.5,89.5 C 148.25,90.6594 149.25,92.326 149.5,94.5C 147.75,93.3406 146.75,91.674 146.5,89.5 Z"/></g>
<g><path style="opacity:0.494" fill="#66656d" d="M 153.5,89.5 C 153.719,90.675 153.386,91.675 152.5,92.5C 151.702,92.0431 151.369,91.3764 151.5,90.5C 152.167,90.1667 152.833,89.8333 153.5,89.5 Z"/></g>
<g><path style="opacity:0.212" fill="#8f636e" d="M 157.5,90.5 C 157.598,92.5529 156.931,94.2196 155.5,95.5C 155.12,93.302 155.787,91.6354 157.5,90.5 Z"/></g>
<g><path style="opacity:0.378" fill="#28232b" d="M 191.5,88.5 C 193.167,88.5 194.833,88.5 196.5,88.5C 196.5,93.5 196.5,98.5 196.5,103.5C 197.5,103.5 198.5,103.5 199.5,103.5C 199.5,98.5 199.5,93.5 199.5,88.5C 199.833,88.5 200.167,88.5 200.5,88.5C 200.5,88.8333 200.5,89.1667 200.5,89.5C 200.5,94.5 200.5,99.5 200.5,104.5C 198.833,104.5 197.167,104.5 195.5,104.5C 195.5,99.5 195.5,94.5 195.5,89.5C 193.901,89.7678 192.568,89.4345 191.5,88.5 Z"/></g>
<g><path style="opacity:0.235" fill="#6a505b" d="M 169.5,84.5 C 171.411,84.5743 172.578,85.5743 173,87.5C 173.687,89.5675 173.52,91.5675 172.5,93.5C 173.869,95.7639 174.869,98.0972 175.5,100.5C 175.5,101.5 175.5,102.5 175.5,103.5C 176.5,103.5 177.5,103.5 178.5,103.5C 178.263,102.209 178.596,101.209 179.5,100.5C 179.833,100.5 180.167,100.5 180.5,100.5C 179.766,101.708 179.433,103.041 179.5,104.5C 177.833,104.5 176.167,104.5 174.5,104.5C 174.737,103.209 174.404,102.209 173.5,101.5C 173.986,98.2447 172.986,95.578 170.5,93.5C 173.158,90.4702 172.825,87.8035 169.5,85.5C 169.5,85.1667 169.5,84.8333 169.5,84.5 Z"/></g>
<g><path style="opacity:0.961" fill="#b05d51" d="M 44.5,92.5 C 43.5,94.1667 42.1667,95.5 40.5,96.5C 40.5,95.1667 40.5,93.8333 40.5,92.5C 41.8333,92.5 43.1667,92.5 44.5,92.5 Z"/></g>
<g><path style="opacity:0.29" fill="#835f67" d="M 91.5,91.5 C 95.6752,92.0064 97.6752,94.3397 97.5,98.5C 95.9965,95.7465 93.9965,93.4132 91.5,91.5 Z"/></g>
<g><path style="opacity:0.725" fill="#8f352d" d="M 110.5,84.5 C 110.5,84.8333 110.5,85.1667 110.5,85.5C 106.445,85.1758 102.445,85.5091 98.5,86.5C 100.045,87.4519 101.712,87.7852 103.5,87.5C 102.887,93.2709 103.554,98.6042 105.5,103.5C 105.5,103.833 105.5,104.167 105.5,104.5C 104.5,104.5 103.5,104.5 102.5,104.5C 102.5,99.1667 102.5,93.8333 102.5,88.5C 101.167,88.5 99.8333,88.5 98.5,88.5C 98.1667,88.5 97.8333,88.5 97.5,88.5C 97.5,87.5 97.5,86.5 97.5,85.5C 101.634,84.5151 105.968,84.1818 110.5,84.5 Z"/></g>
<g><path style="opacity:0.337" fill="#5d6f74" d="M 133.5,89.5 C 132.701,92.4299 132.368,95.4299 132.5,98.5C 131.366,96.0336 131.199,93.367 132,90.5C 132.383,89.944 132.883,89.6107 133.5,89.5 Z"/></g>
<g><path style="opacity:0.616" fill="#584f5e" d="M 143.5,91.5 C 143.833,91.5 144.167,91.5 144.5,91.5C 145.833,93.5 145.833,95.5 144.5,97.5C 144.167,97.5 143.833,97.5 143.5,97.5C 143.5,95.5 143.5,93.5 143.5,91.5 Z"/></g>
<g><path style="opacity:1" fill="#b71008" d="M 185.5,86.5 C 186.024,88.3057 186.691,89.9724 187.5,91.5C 187.628,95.4168 188.628,99.0834 190.5,102.5C 188.358,103.598 187.025,102.764 186.5,100C 183.961,99.2042 181.628,99.3709 179.5,100.5C 178.596,101.209 178.263,102.209 178.5,103.5C 177.5,103.5 176.5,103.5 175.5,103.5C 175.5,102.5 175.5,101.5 175.5,100.5C 176.167,97.8333 176.833,95.1667 177.5,92.5C 178.167,92.1667 178.833,91.8333 179.5,91.5C 180.038,93.8056 180.705,95.4723 181.5,96.5C 182.167,96.5 182.833,96.5 183.5,96.5C 184.65,97.8502 185.317,97.6836 185.5,96C 185.192,94.5405 184.525,93.3739 183.5,92.5C 183.5,91.5 183.5,90.5 183.5,89.5C 182.194,88.5326 181.527,87.1993 181.5,85.5C 182.959,85.4326 184.292,85.7659 185.5,86.5 Z M 181.5,92.5 C 182.167,92.5 182.833,92.5 183.5,92.5C 183.5,93.8333 183.5,95.1667 183.5,96.5C 182.833,96.5 182.167,96.5 181.5,96.5C 181.5,95.1667 181.5,93.8333 181.5,92.5 Z"/></g>
<g><path style="opacity:0.592" fill="#846770" d="M 187.5,91.5 C 188.359,94.2116 189.525,96.8782 191,99.5C 191.78,101.387 191.613,103.054 190.5,104.5C 190.5,103.833 190.5,103.167 190.5,102.5C 188.628,99.0834 187.628,95.4168 187.5,91.5 Z"/></g>
<g><path style="opacity:0.016" fill="#b48b7a" d="M 183.5,92.5 C 184.525,93.3739 185.192,94.5405 185.5,96C 185.317,97.6836 184.65,97.8502 183.5,96.5C 183.5,95.1667 183.5,93.8333 183.5,92.5 Z"/></g>
<g><path style="opacity:0.227" fill="#dec2a1" d="M 128.5,89.5 C 128.5,93.1667 128.5,96.8333 128.5,100.5C 125.989,96.8083 125.989,93.1417 128.5,89.5 Z"/></g>
<g><path style="opacity:0.276" fill="#91969b" d="M 169.5,97.5 C 168.292,96.7659 166.959,96.4326 165.5,96.5C 165.5,97.8333 165.5,99.1667 165.5,100.5C 166.5,100.5 167.5,100.5 168.5,100.5C 167.432,101.434 166.099,101.768 164.5,101.5C 164.5,99.5 164.5,97.5 164.5,95.5C 166.781,95.0773 168.448,95.744 169.5,97.5 Z"/></g>
<g><path style="opacity:0.031" fill="#b9a6a5" d="M 40.5,96.5 C 39.8333,97.8333 38.8333,98.8333 37.5,99.5C 37.5,97.5 38.5,96.5 40.5,96.5 Z"/></g>
<g><path style="opacity:0.302" fill="#9e7976" d="M 119.5,97.5 C 117.656,99.2789 116.99,101.612 117.5,104.5C 116.167,104.5 114.833,104.5 113.5,104.5C 113.5,104.167 113.5,103.833 113.5,103.5C 114.5,103.5 115.5,103.5 116.5,103.5C 116.5,101.167 116.5,98.8333 116.5,96.5C 117.791,96.2627 118.791,96.596 119.5,97.5 Z"/></g>
<g><path style="opacity:0.631" fill="#8a615d" d="M 254.5,98.5 C 256.5,98.5 257.5,99.5 257.5,101.5C 256.167,100.833 255.167,99.8333 254.5,98.5 Z"/></g>
<g><path style="opacity:0.82" fill="#685062" d="M 125.5,92.5 C 124.167,95.1667 124.167,97.8333 125.5,100.5C 124.007,99.6879 123.34,98.3545 123.5,96.5C 123.34,94.6455 124.007,93.3121 125.5,92.5 Z"/></g>
<g><path style="opacity:0.259" fill="#ad443c" d="M 179.5,100.5 C 181.628,99.3709 183.961,99.2042 186.5,100C 187.025,102.764 188.358,103.598 190.5,102.5C 190.5,103.167 190.5,103.833 190.5,104.5C 189.167,104.5 187.833,104.5 186.5,104.5C 186.241,100.932 184.241,99.5985 180.5,100.5C 180.167,100.5 179.833,100.5 179.5,100.5 Z"/></g>
<g><path style="opacity:0.306" fill="#6e6464" d="M 20.5,99.5 C 20.1667,100.5 19.5,101.167 18.5,101.5C 18.5,100.167 19.1667,99.5 20.5,99.5 Z"/></g>
<g><path style="opacity:0.024" fill="#c1b7b4" d="M 92.5,100.5 C 90.7768,101.807 88.9435,101.807 87,100.5C 86.5172,101.448 86.3505,102.448 86.5,103.5C 85.5655,102.432 85.2322,101.099 85.5,99.5C 87.8056,99.9926 90.139,100.326 92.5,100.5 Z"/></g>
<g><path style="opacity:0.298" fill="#917f78" d="M 132.5,98.5 C 133.531,99.355 134.697,100.022 136,100.5C 137.406,99.5862 138.906,98.9195 140.5,98.5C 138.947,101.254 136.614,102.087 133.5,101C 132.748,100.329 132.414,99.4959 132.5,98.5 Z"/></g>
<g><path style="opacity:0.11" fill="#9493a0" d="M 143.5,97.5 C 143.833,97.5 144.167,97.5 144.5,97.5C 144.771,99.3797 144.104,100.713 142.5,101.5C 142.833,100.167 143.167,98.8333 143.5,97.5 Z"/></g>
<g><path style="opacity:0.678" fill="#9d5d59" d="M 257.5,101.5 C 259.5,101.5 260.5,102.5 260.5,104.5C 259.167,103.833 258.167,102.833 257.5,101.5 Z"/></g>
<g><path style="opacity:0.125" fill="#776e6d" d="M 35.5,101.5 C 34.8333,102.833 33.8333,103.833 32.5,104.5C 32.5,102.5 33.5,101.5 35.5,101.5 Z"/></g>
<g><path style="opacity:0.945" fill="#a64b3f" d="M 128.5,101.5 C 132.164,103.558 135.83,104.558 139.5,104.5C 135.003,106.365 131.336,105.365 128.5,101.5 Z"/></g>
<g><path style="opacity:0.102" fill="#9d6466" d="M 142.5,101.5 C 142.573,103.027 141.906,104.027 140.5,104.5C 140.427,102.973 141.094,101.973 142.5,101.5 Z"/></g>
<g><path style="opacity:0.471" fill="#896563" d="M 125.5,100.5 C 128.196,104.378 126.863,105.544 121.5,104C 120.748,103.329 120.414,102.496 120.5,101.5C 122.011,102.502 123.678,103.169 125.5,103.5C 125.5,102.5 125.5,101.5 125.5,100.5 Z"/></g>
<g><path style="opacity:0.843" fill="#8e5851" d="M 149.5,96.5 C 151.344,98.2789 152.01,100.612 151.5,103.5C 152.5,103.5 153.5,103.5 154.5,103.5C 153.081,104.451 151.415,104.784 149.5,104.5C 149.5,101.833 149.5,99.1667 149.5,96.5 Z"/></g>
<g><path style="opacity:0.749" fill="#823a33" d="M 274.5,101.5 C 276.167,102.5 277.5,103.833 278.5,105.5C 275.821,105.475 274.488,104.142 274.5,101.5 Z"/></g>
<g><path style="opacity:0.576" fill="#95514d" d="M 18.5,101.5 C 16.9802,104.788 14.6468,107.454 11.5,109.5C 11.5,109.167 11.5,108.833 11.5,108.5C 13.5,105.833 15.8333,103.5 18.5,101.5 Z"/></g>
<g><path style="opacity:0.486" fill="#af7d79" d="M 278.5,105.5 C 280.587,106.585 281.92,108.251 282.5,110.5C 280.413,109.415 279.08,107.749 278.5,105.5 Z"/></g>
<g><path style="opacity:0.024" fill="#918b8a" d="M 263.5,107.5 C 264.906,107.973 265.573,108.973 265.5,110.5C 264.094,110.027 263.427,109.027 263.5,107.5 Z"/></g>
<g><path style="opacity:0.078" fill="#bfa4a3" d="M 11.5,108.5 C 11.5,108.833 11.5,109.167 11.5,109.5C 11.2444,113.35 11.2444,117.35 11.5,121.5C 10.5265,118.702 9.85981,115.702 9.5,112.5C 9.34024,110.645 10.0069,109.312 11.5,108.5 Z"/></g>
<g><path style="opacity:0.055" fill="#9a6968" d="M 26.5,110.5 C 26.573,112.027 25.9063,113.027 24.5,113.5C 24.427,111.973 25.0937,110.973 26.5,110.5 Z"/></g>
<g><path style="opacity:0.89" fill="#777676" d="M 38.5,118.5 C 37.1667,118.5 36.5,119.167 36.5,120.5C 34.3198,119.883 32.3198,118.883 30.5,117.5C 30.8333,117.167 31.1667,116.833 31.5,116.5C 33.9823,117.067 36.3157,117.734 38.5,118.5 Z"/></g>
<g><path style="opacity:1" fill="#b11006" d="M 38.5,118.5 C 57.0123,122.148 75.6789,124.814 94.5,126.5C 95.2625,127.268 96.2625,127.768 97.5,128C 100.817,128.498 104.15,128.665 107.5,128.5C 109.5,128.5 111.5,128.5 113.5,128.5C 124.288,130.044 135.288,130.71 146.5,130.5C 157.712,130.71 168.712,130.044 179.5,128.5C 181.5,128.5 183.5,128.5 185.5,128.5C 189.881,128.628 194.215,128.295 198.5,127.5C 198.735,128.097 199.235,128.43 200,128.5C 203.421,127.928 206.587,126.928 209.5,125.5C 223.564,123.826 237.564,121.826 251.5,119.5C 252.873,119.343 254.207,119.51 255.5,120C 253.68,120.2 252.347,121.034 251.5,122.5C 244.481,126.284 237.148,129.284 229.5,131.5C 227.847,131.66 226.514,132.326 225.5,133.5C 223.62,133.229 222.287,133.896 221.5,135.5C 220.791,136.404 219.791,136.737 218.5,136.5C 215.911,136.461 213.911,137.461 212.5,139.5C 211.07,140.537 209.403,141.204 207.5,141.5C 203.703,141.872 200.37,143.206 197.5,145.5C 195.095,145.866 192.762,146.533 190.5,147.5C 189.287,147.747 188.62,148.414 188.5,149.5C 183.204,151.824 177.871,154.158 172.5,156.5C 168.148,156.846 164.481,158.512 161.5,161.5C 159.046,163.06 156.38,164.06 153.5,164.5C 151.847,164.66 150.514,165.326 149.5,166.5C 147.5,166.5 145.5,166.5 143.5,166.5C 141.165,163.835 138.165,162.502 134.5,162.5C 132.165,159.835 129.165,158.502 125.5,158.5C 115.684,154.756 106.018,150.756 96.5,146.5C 95.713,144.896 94.3797,144.229 92.5,144.5C 90.8243,142.166 88.491,141.166 85.5,141.5C 84.3646,139.787 82.698,139.12 80.5,139.5C 80.0269,138.094 79.0269,137.427 77.5,137.5C 75.2143,137.405 73.2143,136.738 71.5,135.5C 70.713,133.896 69.3797,133.229 67.5,133.5C 66.4863,132.326 65.153,131.66 63.5,131.5C 60.4958,131.278 57.8292,130.278 55.5,128.5C 54.713,126.896 53.3797,126.229 51.5,126.5C 50.1667,126.167 48.8333,125.833 47.5,125.5C 47.1788,123.952 46.1788,123.285 44.5,123.5C 41.6027,122.871 38.936,121.871 36.5,120.5C 36.5,119.167 37.1667,118.5 38.5,118.5 Z"/></g>
<g><path style="opacity:0.329" fill="#906d6a" d="M 251.5,122.5 C 252.347,121.034 253.68,120.2 255.5,120C 254.207,119.51 252.873,119.343 251.5,119.5C 254.596,118.081 257.929,117.081 261.5,116.5C 261.833,116.833 262.167,117.167 262.5,117.5C 259.036,119.635 255.37,121.301 251.5,122.5 Z"/></g>
<g><path style="opacity:0.353" fill="#7b504d" d="M 44.5,123.5 C 46.1788,123.285 47.1788,123.952 47.5,125.5C 46.2905,125.068 45.2905,124.401 44.5,123.5 Z"/></g>
<g><path style="opacity:0.353" fill="#7f4c49" d="M 51.5,126.5 C 53.3797,126.229 54.713,126.896 55.5,128.5C 53.847,128.34 52.5137,127.674 51.5,126.5 Z"/></g>
<g><path style="opacity:0.267" fill="#b39f9e" d="M 94.5,126.5 C 99.0102,126.884 103.343,127.551 107.5,128.5C 104.15,128.665 100.817,128.498 97.5,128C 96.2625,127.768 95.2625,127.268 94.5,126.5 Z"/></g>
<g><path style="opacity:0.376" fill="#ac9594" d="M 198.5,126.5 C 198.5,126.833 198.5,127.167 198.5,127.5C 194.215,128.295 189.881,128.628 185.5,128.5C 189.657,127.551 193.99,126.884 198.5,126.5 Z"/></g>
<g><path style="opacity:0.976" fill="#924c43" d="M 209.5,125.5 C 206.587,126.928 203.421,127.928 200,128.5C 199.235,128.43 198.735,128.097 198.5,127.5C 198.5,127.167 198.5,126.833 198.5,126.5C 202.198,126.448 205.865,126.114 209.5,125.5 Z"/></g>
<g><path style="opacity:0.671" fill="#a66a5f" d="M 23.5,121.5 C 24.5808,124.627 25.2474,127.96 25.5,131.5C 23.5977,128.663 22.931,125.329 23.5,121.5 Z"/></g>
<g><path style="opacity:0.306" fill="#b66965" d="M 113.5,128.5 C 135.5,129.833 157.5,129.833 179.5,128.5C 168.712,130.044 157.712,130.71 146.5,130.5C 135.288,130.71 124.288,130.044 113.5,128.5 Z"/></g>
<g><path style="opacity:0.173" fill="#a96e6b" d="M 63.5,131.5 C 65.153,131.66 66.4863,132.326 67.5,133.5C 65.6203,133.771 64.287,133.104 63.5,131.5 Z"/></g>
<g><path style="opacity:0.141" fill="#876362" d="M 229.5,131.5 C 228.713,133.104 227.38,133.771 225.5,133.5C 226.514,132.326 227.847,131.66 229.5,131.5 Z"/></g>
<g><path style="opacity:0.235" fill="#948685" d="M 67.5,133.5 C 69.3797,133.229 70.713,133.896 71.5,135.5C 69.847,135.34 68.5137,134.674 67.5,133.5 Z"/></g>
<g><path style="opacity:0.016" fill="#b6a09d" d="M 225.5,133.5 C 224.486,134.674 223.153,135.34 221.5,135.5C 222.287,133.896 223.62,133.229 225.5,133.5 Z"/></g>
<g><path style="opacity:0.212" fill="#be8e8c" d="M 218.5,136.5 C 216.819,138.008 214.819,139.008 212.5,139.5C 213.911,137.461 215.911,136.461 218.5,136.5 Z"/></g>
<g><path style="opacity:0.369" fill="#b56b67" d="M 11.5,123.5 C 13.3054,129.233 14.3054,135.233 14.5,141.5C 12.5319,135.801 11.5319,129.801 11.5,123.5 Z"/></g>
<g><path style="opacity:0.149" fill="#a7807f" d="M 77.5,137.5 C 79.0269,137.427 80.0269,138.094 80.5,139.5C 78.9731,139.573 77.9731,138.906 77.5,137.5 Z"/></g>
<g><path style="opacity:0.322" fill="#a64e48" d="M 267.5,131.5 C 268.603,135.24 268.27,138.906 266.5,142.5C 266.552,138.802 266.886,135.135 267.5,131.5 Z"/></g>
<g><path style="opacity:0.725" fill="#bd7b76" d="M 80.5,139.5 C 82.698,139.12 84.3646,139.787 85.5,141.5C 83.597,141.204 81.9303,140.537 80.5,139.5 Z"/></g>
<g><path style="opacity:0.796" fill="#af706a" d="M 85.5,141.5 C 88.491,141.166 90.8243,142.166 92.5,144.5C 89.8427,144.065 87.5093,143.065 85.5,141.5 Z"/></g>
<g><path style="opacity:0.11" fill="#b1918f" d="M 207.5,141.5 C 204.47,143.403 201.137,144.737 197.5,145.5C 200.37,143.206 203.703,141.872 207.5,141.5 Z"/></g>
<g><path style="opacity:0.086" fill="#b99d9c" d="M 92.5,144.5 C 94.3797,144.229 95.713,144.896 96.5,146.5C 94.847,146.34 93.5137,145.674 92.5,144.5 Z"/></g>
<g><path style="opacity:0.82" fill="#995147" d="M 197.5,145.5 C 194.912,147.592 191.912,148.925 188.5,149.5C 188.62,148.414 189.287,147.747 190.5,147.5C 192.762,146.533 195.095,145.866 197.5,145.5 Z"/></g>
<g><path style="opacity:0.141" fill="#a66964" d="M 15.5,148.5 C 16.913,151.219 17.5797,154.219 17.5,157.5C 15.8819,154.829 15.2153,151.829 15.5,148.5 Z"/></g>
<g><path style="opacity:0.969" fill="#a84c43" d="M 266.5,142.5 C 266.038,147.162 265.538,151.829 265,156.5C 264.617,157.056 264.117,157.389 263.5,157.5C 263.763,152.23 264.763,147.23 266.5,142.5 Z"/></g>
<g><path style="opacity:0.906" fill="#ad5950" d="M 125.5,158.5 C 129.165,158.502 132.165,159.835 134.5,162.5C 131.088,161.925 128.088,160.592 125.5,158.5 Z"/></g>
<g><path style="opacity:0.322" fill="#a17875" d="M 172.5,156.5 C 169.021,158.403 165.354,160.07 161.5,161.5C 164.481,158.512 168.148,156.846 172.5,156.5 Z"/></g>
<g><path style="opacity:0.455" fill="#af7e7c" d="M 263.5,157.5 C 263.706,160.495 263.04,163.162 261.5,165.5C 261.294,162.505 261.96,159.838 263.5,157.5 Z"/></g>
<g><path style="opacity:0.82" fill="#985c55" d="M 29.5,158.5 C 30.5375,159.93 31.2041,161.597 31.5,163.5C 29.744,162.448 29.0773,160.781 29.5,158.5 Z"/></g>
<g><path style="opacity:0.875" fill="#b36b63" d="M 134.5,162.5 C 138.165,162.502 141.165,163.835 143.5,166.5C 140.303,165.548 137.303,164.215 134.5,162.5 Z"/></g>
<g><path style="opacity:0.071" fill="#bf9f9f" d="M 153.5,164.5 C 152.713,166.104 151.38,166.771 149.5,166.5C 150.514,165.326 151.847,164.66 153.5,164.5 Z"/></g>
<g><path style="opacity:0.455" fill="#7f6362" d="M 143.5,166.5 C 145.5,166.5 147.5,166.5 149.5,166.5C 149.167,167.167 148.833,167.833 148.5,168.5C 147.167,168.167 145.833,167.833 144.5,167.5C 143.833,167.5 143.5,167.167 143.5,166.5 Z"/></g>
<g><path style="opacity:1" fill="#b10a04" d="M 144.5,167.5 C 145.833,167.833 147.167,168.167 148.5,168.5C 150.218,170.223 151.551,172.223 152.5,174.5C 153.189,177.189 154.856,178.856 157.5,179.5C 158.338,179.842 158.672,180.508 158.5,181.5C 158.738,183.404 159.738,184.738 161.5,185.5C 161.833,186.5 162.5,187.167 163.5,187.5C 163.738,189.404 164.738,190.738 166.5,191.5C 167.08,193.749 168.413,195.415 170.5,196.5C 174.207,199.576 177.207,203.242 179.5,207.5C 181.774,211.687 184.774,215.354 188.5,218.5C 188.738,220.404 189.738,221.738 191.5,222.5C 191.833,223.5 192.5,224.167 193.5,224.5C 193.738,226.404 194.738,227.738 196.5,228.5C 196.5,230.5 197.5,231.5 199.5,231.5C 200.338,231.842 200.672,232.508 200.5,233.5C 201.419,236.089 203.086,238.089 205.5,239.5C 206.167,239.5 206.5,239.833 206.5,240.5C 206.738,242.404 207.738,243.738 209.5,244.5C 211.262,245.262 212.262,246.596 212.5,248.5C 213.415,250.754 214.748,252.754 216.5,254.5C 215.767,255.087 214.767,255.087 213.5,254.5C 210.797,252.819 208.131,251.153 205.5,249.5C 204.461,247.469 202.795,246.136 200.5,245.5C 199.508,245.672 198.842,245.338 198.5,244.5C 198.027,243.094 197.027,242.427 195.5,242.5C 194.508,242.672 193.842,242.338 193.5,241.5C 193.027,240.094 192.027,239.427 190.5,239.5C 189.738,237.738 188.404,236.738 186.5,236.5C 185.508,236.672 184.842,236.338 184.5,235.5C 182.558,233.609 180.725,231.609 179,229.5C 178.617,230.056 178.117,230.389 177.5,230.5C 174.056,229.093 171.056,227.093 168.5,224.5C 167.341,222.75 165.674,221.75 163.5,221.5C 162.508,221.672 161.842,221.338 161.5,220.5C 161.027,219.094 160.027,218.427 158.5,218.5C 157.738,216.738 156.404,215.738 154.5,215.5C 153.508,215.672 152.842,215.338 152.5,214.5C 152.027,213.094 151.027,212.427 149.5,212.5C 148.341,210.623 146.674,210.123 144.5,211C 142.253,212.277 140.253,213.777 138.5,215.5C 136.368,215.554 135.035,216.554 134.5,218.5C 132.326,218.75 130.659,219.75 129.5,221.5C 127.381,223.4 125.047,225.066 122.5,226.5C 120.821,226.285 119.821,226.952 119.5,228.5C 118.486,229.674 117.153,230.34 115.5,230.5C 113.174,231.145 111.507,232.478 110.5,234.5C 108.821,234.285 107.821,234.952 107.5,236.5C 106.833,236.833 106.167,237.167 105.5,237.5C 103.973,237.427 102.973,238.094 102.5,239.5C 100.326,239.75 98.6594,240.75 97.5,242.5C 95.368,242.554 94.0347,243.554 93.5,245.5C 92.8333,245.833 92.1667,246.167 91.5,246.5C 88.4535,246.183 86.7868,247.516 86.5,250.5C 85.609,251.11 84.609,251.443 83.5,251.5C 82.1667,251.5 81.5,252.167 81.5,253.5C 81.1667,253.5 80.8333,253.5 80.5,253.5C 79.1526,254.028 77.8193,254.195 76.5,254C 77.8228,253.184 78.4894,252.017 78.5,250.5C 79.6924,248.122 81.359,246.122 83.5,244.5C 85.5869,243.415 86.9202,241.749 87.5,239.5C 89.2624,238.738 90.2624,237.404 90.5,235.5C 91.5,235.167 92.1667,234.5 92.5,233.5C 94.2624,232.738 95.2624,231.404 95.5,229.5C 95.5,228.833 95.8333,228.5 96.5,228.5C 98.8903,227.109 100.557,225.109 101.5,222.5C 102.906,222.027 103.573,221.027 103.5,219.5C 105.86,218.135 107.527,216.135 108.5,213.5C 110.89,212.109 112.557,210.109 113.5,207.5C 116.219,205.781 118.219,203.447 119.5,200.5C 122.535,198.121 124.869,195.121 126.5,191.5C 128.89,190.109 130.557,188.109 131.5,185.5C 134.535,183.121 136.869,180.121 138.5,176.5C 140.474,173.518 142.474,170.518 144.5,167.5 Z"/></g>
<g><path style="opacity:0.071" fill="#b8a4a3" d="M 260.5,170.5 C 260.405,172.786 259.738,174.786 258.5,176.5C 258.259,174.102 258.926,172.102 260.5,170.5 Z"/></g>
<g><path style="opacity:0.463" fill="#9e6d6a" d="M 20.5,173.5 C 22.3818,174.221 22.7152,175.221 21.5,176.5C 20.8902,175.609 20.5569,174.609 20.5,173.5 Z"/></g>
<g><path style="opacity:0.506" fill="#a45b58" d="M 32.5,171.5 C 34.0739,173.102 34.7406,175.102 34.5,177.5C 32.9261,175.898 32.2594,173.898 32.5,171.5 Z"/></g>
<g><path style="opacity:0.827" fill="#99625d" d="M 152.5,174.5 C 154.452,175.785 156.118,177.451 157.5,179.5C 154.856,178.856 153.189,177.189 152.5,174.5 Z"/></g>
<g><path style="opacity:0.6" fill="#ab6c67" d="M 270.5,179.5 C 269.79,183.025 268.79,186.358 267.5,189.5C 267.288,185.655 268.288,182.321 270.5,179.5 Z"/></g>
<g><path style="opacity:0.686" fill="#93534e" d="M 138.5,176.5 C 136.869,180.121 134.535,183.121 131.5,185.5C 133.111,181.949 135.444,178.949 138.5,176.5 Z"/></g>
<g><path style="opacity:0.694" fill="#a36561" d="M 158.5,181.5 C 160.262,182.262 161.262,183.596 161.5,185.5C 159.738,184.738 158.738,183.404 158.5,181.5 Z"/></g>
<g><path style="opacity:0.008" fill="#aa9f9f" d="M 161.5,185.5 C 162.833,185.5 163.5,186.167 163.5,187.5C 162.5,187.167 161.833,186.5 161.5,185.5 Z"/></g>
<g><path style="opacity:0.424" fill="#ac7a78" d="M 35.5,181.5 C 37.0739,183.102 37.7406,185.102 37.5,187.5C 35.9261,185.898 35.2594,183.898 35.5,181.5 Z"/></g>
<g><path style="opacity:1" fill="#a85146" d="M 258.5,177.5 C 258.326,180.874 257.826,184.207 257,187.5C 256.292,188.381 255.458,189.047 254.5,189.5C 255.32,185.224 256.653,181.224 258.5,177.5 Z"/></g>
<g><path style="opacity:0.765" fill="#9a5954" d="M 131.5,185.5 C 130.557,188.109 128.89,190.109 126.5,191.5C 127.473,188.865 129.14,186.865 131.5,185.5 Z"/></g>
<g><path style="opacity:0.447" fill="#ac7774" d="M 163.5,187.5 C 165.262,188.262 166.262,189.596 166.5,191.5C 164.738,190.738 163.738,189.404 163.5,187.5 Z"/></g>
<g><path style="opacity:0.624" fill="#b97069" d="M 267.5,189.5 C 267.125,191.698 266.458,193.698 265.5,195.5C 265.054,192.99 265.72,190.99 267.5,189.5 Z"/></g>
<g><path style="opacity:0.796" fill="#985e5a" d="M 166.5,191.5 C 168.587,192.585 169.92,194.251 170.5,196.5C 168.413,195.415 167.08,193.749 166.5,191.5 Z"/></g>
<g><path style="opacity:0.788" fill="#a8706c" d="M 38.5,191.5 C 40.4725,194.084 41.4725,197.084 41.5,200.5C 39.6896,197.855 38.6896,194.855 38.5,191.5 Z"/></g>
<g><path style="opacity:0.827" fill="#9f5b54" d="M 254.5,191.5 C 253.977,194.89 253.143,198.223 252,201.5C 251.617,202.056 251.117,202.389 250.5,202.5C 251.082,198.468 252.416,194.801 254.5,191.5 Z"/></g>
<g><path style="opacity:0.875" fill="#8d392f" d="M 126.5,191.5 C 124.869,195.121 122.535,198.121 119.5,200.5C 121.111,196.949 123.444,193.949 126.5,191.5 Z"/></g>
<g><path style="opacity:0.361" fill="#a37978" d="M 265.5,196.5 C 265.771,198.38 265.104,199.713 263.5,200.5C 263.229,198.62 263.896,197.287 265.5,196.5 Z"/></g>
<g><path style="opacity:0.141" fill="#b5a4a4" d="M 27.5,197.5 C 29.1042,198.287 29.7709,199.62 29.5,201.5C 28.3263,200.486 27.6596,199.153 27.5,197.5 Z"/></g>
<g><path style="opacity:0.039" fill="#c2a3a3" d="M 41.5,200.5 C 43.2132,201.635 43.8799,203.302 43.5,205.5C 42.4625,204.07 41.7959,202.403 41.5,200.5 Z"/></g>
<g><path style="opacity:0.008" fill="#b39897" d="M 29.5,201.5 C 31.0198,203.89 32.0198,206.557 32.5,209.5C 30.3455,207.383 29.3455,204.716 29.5,201.5 Z"/></g>
<g><path style="opacity:0.592" fill="#a6605a" d="M 119.5,200.5 C 118.219,203.447 116.219,205.781 113.5,207.5C 114.412,205.405 115.579,203.405 117,201.5C 117.671,200.748 118.504,200.414 119.5,200.5 Z"/></g>
<g><path style="opacity:0.314" fill="#a67877" d="M 262.5,204.5 C 262.598,206.553 261.931,208.22 260.5,209.5C 260.402,207.447 261.069,205.78 262.5,204.5 Z"/></g>
<g><path style="opacity:0.804" fill="#a8655f" d="M 43.5,205.5 C 44.5375,206.93 45.2041,208.597 45.5,210.5C 43.7868,209.365 43.1201,207.698 43.5,205.5 Z"/></g>
<g><path style="opacity:0.337" fill="#b7827f" d="M 113.5,207.5 C 112.557,210.109 110.89,212.109 108.5,213.5C 109.473,210.865 111.14,208.865 113.5,207.5 Z"/></g>
<g><path style="opacity:0.196" fill="#ab7b7a" d="M 149.5,212.5 C 148.417,212.461 147.417,212.127 146.5,211.5C 144.045,213.297 141.378,214.63 138.5,215.5C 140.253,213.777 142.253,212.277 144.5,211C 146.674,210.123 148.341,210.623 149.5,212.5 Z"/></g>
<g><path style="opacity:0.749" fill="#9d554d" d="M 260.5,209.5 C 260.267,212.542 259.267,215.208 257.5,217.5C 257.345,214.284 258.345,211.617 260.5,209.5 Z"/></g>
<g><path style="opacity:0.204" fill="#a07f7e" d="M 149.5,212.5 C 151.027,212.427 152.027,213.094 152.5,214.5C 150.973,214.573 149.973,213.906 149.5,212.5 Z"/></g>
<g><path style="opacity:0.071" fill="#be918f" d="M 32.5,211.5 C 34.3794,212.895 35.3794,214.895 35.5,217.5C 33.7549,215.967 32.7549,213.967 32.5,211.5 Z"/></g>
<g><path style="opacity:0.702" fill="#a66762" d="M 179.5,207.5 C 183.215,210.607 186.215,214.273 188.5,218.5C 184.774,215.354 181.774,211.687 179.5,207.5 Z"/></g>
<g><path style="opacity:0.592" fill="#975d59" d="M 108.5,213.5 C 107.527,216.135 105.86,218.135 103.5,219.5C 104.443,216.891 106.11,214.891 108.5,213.5 Z"/></g>
<g><path style="opacity:0.624" fill="#ac7874" d="M 154.5,215.5 C 156.404,215.738 157.738,216.738 158.5,218.5C 156.596,218.262 155.262,217.262 154.5,215.5 Z"/></g>
<g><path style="opacity:0.055" fill="#9a807e" d="M 138.5,215.5 C 137.738,217.262 136.404,218.262 134.5,218.5C 135.035,216.554 136.368,215.554 138.5,215.5 Z"/></g>
<g><path style="opacity:0.329" fill="#b38b8a" d="M 158.5,218.5 C 160.027,218.427 161.027,219.094 161.5,220.5C 159.973,220.573 158.973,219.906 158.5,218.5 Z"/></g>
<g><path style="opacity:0.671" fill="#9c6663" d="M 188.5,218.5 C 190.262,219.262 191.262,220.596 191.5,222.5C 189.738,221.738 188.738,220.404 188.5,218.5 Z"/></g>
<g><path style="opacity:0.576" fill="#935b58" d="M 103.5,219.5 C 103.573,221.027 102.906,222.027 101.5,222.5C 101.427,220.973 102.094,219.973 103.5,219.5 Z"/></g>
<g><path style="opacity:0.024" fill="#ae9897" d="M 134.5,218.5 C 133.341,220.25 131.674,221.25 129.5,221.5C 130.659,219.75 132.326,218.75 134.5,218.5 Z"/></g>
<g><path style="opacity:0.039" fill="#a67674" d="M 35.5,218.5 C 37.2451,220.033 38.2451,222.033 38.5,224.5C 36.7549,222.967 35.7549,220.967 35.5,218.5 Z"/></g>
<g><path style="opacity:0.812" fill="#854944" d="M 163.5,221.5 C 165.674,221.75 167.341,222.75 168.5,224.5C 166.326,224.25 164.659,223.25 163.5,221.5 Z"/></g>
<g><path style="opacity:0.008" fill="#9b9292" d="M 191.5,222.5 C 192.833,222.5 193.5,223.167 193.5,224.5C 192.5,224.167 191.833,223.5 191.5,222.5 Z"/></g>
<g><path style="opacity:0.141" fill="#736b6a" d="M 256.5,220.5 C 256.771,222.38 256.104,223.713 254.5,224.5C 254.66,222.847 255.326,221.514 256.5,220.5 Z"/></g>
<g><path style="opacity:0.561" fill="#984e46" d="M 243.5,220.5 C 243.657,221.873 243.49,223.207 243,224.5C 242.263,226.596 241.097,228.263 239.5,229.5C 240.083,226.053 241.416,223.053 243.5,220.5 Z"/></g>
<g><path style="opacity:0.647" fill="#835855" d="M 101.5,222.5 C 100.557,225.109 98.8903,227.109 96.5,228.5C 97.4735,225.865 99.1402,223.865 101.5,222.5 Z"/></g>
<g><path style="opacity:0.584" fill="#b97771" d="M 193.5,224.5 C 195.262,225.262 196.262,226.596 196.5,228.5C 194.738,227.738 193.738,226.404 193.5,224.5 Z"/></g>
<g><path style="opacity:0.384" fill="#a46561" d="M 50.5,223.5 C 52.047,224.768 53.047,226.435 53.5,228.5C 51.5923,227.514 50.5923,225.848 50.5,223.5 Z"/></g>
<g><path style="opacity:0.314" fill="#a67c78" d="M 122.5,226.5 C 121.71,227.401 120.71,228.068 119.5,228.5C 119.821,226.952 120.821,226.285 122.5,226.5 Z"/></g>
<g><path style="opacity:0.514" fill="#a66560" d="M 38.5,224.5 C 40.2671,226.792 41.2671,229.458 41.5,232.5C 39.7329,230.208 38.7329,227.542 38.5,224.5 Z"/></g>
<g><path style="opacity:0.804" fill="#915953" d="M 196.5,228.5 C 197.833,229.167 198.833,230.167 199.5,231.5C 197.5,231.5 196.5,230.5 196.5,228.5 Z"/></g>
<g><path style="opacity:0.576" fill="#9e4d42" d="M 254.5,224.5 C 254.448,227.346 253.448,229.68 251.5,231.5C 251.552,228.654 252.552,226.32 254.5,224.5 Z"/></g>
<g><path style="opacity:0.345" fill="#bf9f9e" d="M 239.5,229.5 C 239.34,231.153 238.674,232.486 237.5,233.5C 237.229,231.62 237.896,230.287 239.5,229.5 Z"/></g>
<g><path style="opacity:0.4" fill="#a2615e" d="M 95.5,229.5 C 95.2624,231.404 94.2624,232.738 92.5,233.5C 92.7376,231.596 93.7376,230.262 95.5,229.5 Z"/></g>
<g><path style="opacity:0.251" fill="#b18987" d="M 115.5,230.5 C 114.493,232.522 112.826,233.855 110.5,234.5C 111.507,232.478 113.174,231.145 115.5,230.5 Z"/></g>
<g><path style="opacity:0.282" fill="#9e6d69" d="M 184.5,235.5 C 181.63,234.567 179.296,232.9 177.5,230.5C 178.117,230.389 178.617,230.056 179,229.5C 180.725,231.609 182.558,233.609 184.5,235.5 Z"/></g>
<g><path style="opacity:0.788" fill="#9e6862" d="M 41.5,233.5 C 43.4077,234.486 44.4077,236.152 44.5,238.5C 42.953,237.232 41.953,235.565 41.5,233.5 Z"/></g>
<g><path style="opacity:0.282" fill="#9d8584" d="M 92.5,233.5 C 92.1667,234.5 91.5,235.167 90.5,235.5C 90.5,234.167 91.1667,233.5 92.5,233.5 Z"/></g>
<g><path style="opacity:0.227" fill="#a87b77" d="M 110.5,234.5 C 109.71,235.401 108.71,236.068 107.5,236.5C 107.821,234.952 108.821,234.285 110.5,234.5 Z"/></g>
<g><path style="opacity:0.765" fill="#a86761" d="M 200.5,233.5 C 202.914,234.911 204.581,236.911 205.5,239.5C 203.086,238.089 201.419,236.089 200.5,233.5 Z"/></g>
<g><path style="opacity:0.639" fill="#aa726f" d="M 186.5,236.5 C 188.404,236.738 189.738,237.738 190.5,239.5C 188.596,239.262 187.262,238.262 186.5,236.5 Z"/></g>
<g><path style="opacity:0.937" fill="#a05850" d="M 237.5,233.5 C 236.686,238.951 234.353,243.618 230.5,247.5C 232.464,242.579 234.798,237.912 237.5,233.5 Z"/></g>
<g><path style="opacity:0.439" fill="#b37371" d="M 90.5,235.5 C 90.2624,237.404 89.2624,238.738 87.5,239.5C 87.7376,237.596 88.7376,236.262 90.5,235.5 Z"/></g>
<g><path style="opacity:0.008" fill="#c2acab" d="M 105.5,237.5 C 105.027,238.906 104.027,239.573 102.5,239.5C 102.973,238.094 103.973,237.427 105.5,237.5 Z"/></g>
<g><path style="opacity:0.561" fill="#a2645f" d="M 55.5,233.5 C 57.1948,235.897 58.5282,238.563 59.5,241.5C 56.8633,239.518 55.53,236.852 55.5,233.5 Z"/></g>
<g><path style="opacity:0.376" fill="#d18e8c" d="M 190.5,239.5 C 192.027,239.427 193.027,240.094 193.5,241.5C 191.973,241.573 190.973,240.906 190.5,239.5 Z"/></g>
<g><path style="opacity:0.259" fill="#92625e" d="M 44.5,239.5 C 46.2503,240.659 47.2503,242.326 47.5,244.5C 45.7497,243.341 44.7497,241.674 44.5,239.5 Z"/></g>
<g><path style="opacity:0.055" fill="#a69392" d="M 102.5,239.5 C 101.341,241.25 99.674,242.25 97.5,242.5C 98.6594,240.75 100.326,239.75 102.5,239.5 Z"/></g>
<g><path style="opacity:0.592" fill="#896c6b" d="M 206.5,240.5 C 208.262,241.262 209.262,242.596 209.5,244.5C 207.738,243.738 206.738,242.404 206.5,240.5 Z"/></g>
<g><path style="opacity:0.506" fill="#a66e6b" d="M 87.5,239.5 C 86.9202,241.749 85.5869,243.415 83.5,244.5C 84.0798,242.251 85.4131,240.585 87.5,239.5 Z"/></g>
<g><path style="opacity:0.561" fill="#aa6c66" d="M 195.5,242.5 C 197.027,242.427 198.027,243.094 198.5,244.5C 196.973,244.573 195.973,243.906 195.5,242.5 Z"/></g>
<g><path style="opacity:0.314" fill="#9f6764" d="M 97.5,242.5 C 96.5637,243.974 95.2303,244.974 93.5,245.5C 94.0347,243.554 95.368,242.554 97.5,242.5 Z"/></g>
<g><path style="opacity:0.125" fill="#917574" d="M 247.5,240.5 C 247.771,242.38 247.104,243.713 245.5,244.5C 245.66,242.847 246.326,241.514 247.5,240.5 Z"/></g>
<g><path style="opacity:0.165" fill="#977d7d" d="M 59.5,242.5 C 60.9063,242.973 61.573,243.973 61.5,245.5C 60.0937,245.027 59.427,244.027 59.5,242.5 Z"/></g>
<g><path style="opacity:0.929" fill="#a75a4e" d="M 91.5,246.5 C 90.0552,248.063 88.3885,249.396 86.5,250.5C 86.7868,247.516 88.4535,246.183 91.5,246.5 Z"/></g>
<g><path style="opacity:0.537" fill="#9a5751" d="M 200.5,245.5 C 202.795,246.136 204.461,247.469 205.5,249.5C 203.246,248.876 201.579,247.543 200.5,245.5 Z"/></g>
<g><path style="opacity:0.29" fill="#7f5551" d="M 47.5,245.5 C 49.2503,246.659 50.2503,248.326 50.5,250.5C 48.7497,249.341 47.7497,247.674 47.5,245.5 Z"/></g>
<g><path style="opacity:0.243" fill="#b8a6a6" d="M 230.5,247.5 C 230.573,249.027 229.906,250.027 228.5,250.5C 228.427,248.973 229.094,247.973 230.5,247.5 Z"/></g>
<g><path style="opacity:0.306" fill="#965c55" d="M 61.5,245.5 C 62.4918,247.456 63.4918,249.456 64.5,251.5C 62.087,250.32 61.087,248.32 61.5,245.5 Z"/></g>
<g><path style="opacity:0.259" fill="#625655" d="M 83.5,251.5 C 83.1667,252.5 82.5,253.167 81.5,253.5C 81.5,252.167 82.1667,251.5 83.5,251.5 Z"/></g>
<g><path style="opacity:0.22" fill="#b38b89" d="M 245.5,245.5 C 245.104,248.721 243.771,251.388 241.5,253.5C 241.794,250.246 243.127,247.579 245.5,245.5 Z"/></g>
<g><path style="opacity:0.235" fill="#9d7471" d="M 50.5,251.5 C 53.2583,254.678 55.2583,258.345 56.5,262.5C 53.7417,259.322 51.7417,255.655 50.5,251.5 Z"/></g>
<g><path style="opacity:0.439" fill="#af8685" d="M 65.5,253.5 C 67.2503,254.659 68.2503,256.326 68.5,258.5C 66.7497,257.341 65.7497,255.674 65.5,253.5 Z"/></g>
<g><path style="opacity:0.914" fill="#964f49" d="M 78.5,250.5 C 78.4894,252.017 77.8228,253.184 76.5,254C 77.8193,254.195 79.1526,254.028 80.5,253.5C 79.7377,255.262 78.4044,256.262 76.5,256.5C 75.5084,256.672 74.8417,256.338 74.5,255.5C 75.1237,253.246 76.457,251.579 78.5,250.5 Z"/></g>
<g><path style="opacity:0.545" fill="#b37571" d="M 227.5,253.5 C 227.573,255.027 226.906,256.027 225.5,256.5C 225.427,254.973 226.094,253.973 227.5,253.5 Z"/></g>
<g><path style="opacity:0.031" fill="#9c8e8e" d="M 241.5,253.5 C 241.573,255.027 240.906,256.027 239.5,256.5C 239.427,254.973 240.094,253.973 241.5,253.5 Z"/></g>
<g><path style="opacity:0.796" fill="#9d6762" d="M 212.5,248.5 C 215.814,251.231 218.814,254.397 221.5,258C 221,258.5 220.5,259 220,259.5C 217.674,257.934 215.508,256.268 213.5,254.5C 214.767,255.087 215.767,255.087 216.5,254.5C 214.748,252.754 213.415,250.754 212.5,248.5 Z"/></g>
<g><path style="opacity:0.402" fill="#787979" d="M 74.5,255.5 C 74.8417,256.338 75.5084,256.672 76.5,256.5C 75.2347,257.479 73.9014,258.479 72.5,259.5C 71.6054,257.655 72.2721,256.322 74.5,255.5 Z"/></g>
<g><path style="opacity:0.141" fill="#ac807e" d="M 239.5,256.5 C 239.509,258.308 239.009,259.975 238,261.5C 236.723,263.747 235.223,265.747 233.5,267.5C 234.742,263.345 236.742,259.678 239.5,256.5 Z"/></g>
<g><path style="opacity:0.102" fill="#ab716c" d="M 68.5,258.5 C 69.2674,259.172 69.9341,260.005 70.5,261C 73.1042,261.39 75.4375,262.224 77.5,263.5C 74.5176,263.037 71.5176,262.704 68.5,262.5C 68.5,261.167 68.5,259.833 68.5,258.5 Z"/></g>
<g><path style="opacity:0.529" fill="#ac716e" d="M 223.5,260.5 C 221.478,262.693 218.811,263.693 215.5,263.5C 217.979,262.205 220.646,261.205 223.5,260.5 Z"/></g>
<g><path style="opacity:0.835" fill="#a85b55" d="M 78.5,263.5 C 83.4714,263.656 88.138,264.656 92.5,266.5C 88.4908,266.142 84.4908,265.642 80.5,265C 79.5842,264.722 78.9175,264.222 78.5,263.5 Z"/></g>
<g><path style="opacity:0.616" fill="#a34c48" d="M 214.5,263.5 C 214.082,264.222 213.416,264.722 212.5,265C 208.509,265.642 204.509,266.142 200.5,266.5C 204.862,264.656 209.529,263.656 214.5,263.5 Z"/></g>
<g><path style="opacity:0.702" fill="#9b443d" d="M 198.5,266.5 C 193.447,268.26 188.114,268.927 182.5,268.5C 187.633,267.335 192.966,266.668 198.5,266.5 Z"/></g>
<g><path style="opacity:0.157" fill="#b48482" d="M 56.5,262.5 C 58.588,264.336 59.9213,266.669 60.5,269.5C 58.412,267.664 57.0787,265.331 56.5,262.5 Z"/></g>
<g><path style="opacity:0.063" fill="#755c58" d="M 232.5,269.5 C 232.573,271.027 231.906,272.027 230.5,272.5C 230.285,270.821 230.952,269.821 232.5,269.5 Z"/></g>
<g><path style="opacity:0.812" fill="#95463a" d="M 62.5,272.5 C 65.8291,272.215 68.8291,272.882 71.5,274.5C 68.1709,274.785 65.1709,274.118 62.5,272.5 Z"/></g>
<g><path style="opacity:0.6" fill="#984337" d="M 77.5,275.5 C 80.8291,275.215 83.8291,275.882 86.5,277.5C 83.1709,277.785 80.1709,277.118 77.5,275.5 Z"/></g>
</svg>
